<svg xmlns="http://www.w3.org/2000/svg" width="40.979" height="40.98" viewBox="0 0 40.979 40.98"><defs><style>.a{fill:#15b0bf;}.b{fill:none;stroke:#1695a4;stroke-miterlimit:10;stroke-width:1.4px;stroke-dasharray:5 6;}.c{fill:#1695a4;}.d{fill:#fff;}.e{fill:#d1ecfb;}.f{fill:#2c5871;}.g{fill:#f99b1c;}</style></defs><g transform="translate(-115.64 -135.697)"><ellipse class="a" cx="12.753" cy="12.753" rx="12.753" ry="12.753" transform="translate(120.744 165.598) rotate(-76.455)"/><circle class="b" cx="13.789" cy="13.789" r="13.789" transform="translate(116.629 156.187) rotate(-45)"/><circle class="c" cx="11.405" cy="11.405" r="11.405" transform="translate(120 156.187) rotate(-45)"/><ellipse class="d" cx="10.756" cy="10.756" rx="10.756" ry="10.756" transform="translate(123.159 164.134) rotate(-76.497)"/><path class="e" d="M188.4,198.248a10.756,10.756,0,0,1,10.739,10.158c.011-.2.017-.4.017-.6a10.756,10.756,0,0,0-21.513,0c0,.2.007.4.017.6A10.756,10.756,0,0,1,188.4,198.248Z" transform="translate(-52.272 -51.713)"/><path class="f" d="M246.744,265.6a1.2,1.2,0,1,1-1.2-1.2A1.2,1.2,0,0,1,246.744,265.6Z" transform="translate(-109.417 -109.417)"/><g transform="translate(135.68 148.438)"><path class="f" d="M250.022,226.889a.449.449,0,0,1-.449-.449v-7.3a.449.449,0,0,1,.9,0v7.3A.449.449,0,0,1,250.022,226.889Z" transform="translate(-249.573 -218.691)"/></g><g transform="translate(130.954 155.738)"><path class="f" d="M217.044,273.258a.449.449,0,0,1-.225-.838l4.726-2.729a.449.449,0,0,1,.449.778l-4.726,2.729A.447.447,0,0,1,217.044,273.258Z" transform="translate(-216.594 -269.631)"/></g><path class="d" d="M249.292,268.662a.686.686,0,1,1-.686-.686A.686.686,0,0,1,249.292,268.662Z" transform="translate(-112.476 -112.476)"/><g transform="translate(124.98 145.037)"><g transform="translate(0 0)"><g transform="translate(10.85)"><path class="c" d="M250.917,197.309a.3.3,0,0,1-.3-.3v-1.75a.3.3,0,0,1,.6,0v1.75A.3.3,0,0,1,250.917,197.309Z" transform="translate(-250.618 -194.96)"/><g transform="translate(0 19.95)"><path class="c" d="M250.917,336.529a.3.3,0,0,1-.3-.3v-1.75a.3.3,0,0,1,.6,0v1.75A.3.3,0,0,1,250.917,336.529Z" transform="translate(-250.618 -334.18)"/></g></g><g transform="translate(0 10.85)"><g transform="translate(19.95)"><path class="c" d="M316.171,271.274h-1.75a.3.3,0,1,1,0-.6h1.75a.3.3,0,0,1,0,.6Z" transform="translate(-314.122 -270.675)"/></g><path class="c" d="M176.952,271.274H175.2a.3.3,0,1,1,0-.6h1.75a.3.3,0,1,1,0,.6Z" transform="translate(-174.903 -270.675)"/></g></g><g transform="translate(1.454 1.453)"><g transform="translate(3.971)"><path class="c" d="M213.935,207.217a.3.3,0,0,1-.26-.15l-.875-1.516a.3.3,0,0,1,.519-.3l.875,1.516a.3.3,0,0,1-.11.409A.3.3,0,0,1,213.935,207.217Z" transform="translate(-212.76 -205.103)"/><g transform="translate(9.975 17.277)"><path class="c" d="M283.544,327.785a.3.3,0,0,1-.26-.15l-.875-1.515a.3.3,0,0,1,.519-.3l.875,1.516a.3.3,0,0,1-.259.449Z" transform="translate(-282.369 -325.67)"/></g></g><g transform="translate(0 3.971)"><g transform="translate(17.277)"><path class="c" d="M305.913,234.291a.3.3,0,0,1-.15-.559l1.515-.875a.3.3,0,1,1,.3.519l-1.515.875A.3.3,0,0,1,305.913,234.291Z" transform="translate(-305.613 -232.817)"/></g><g transform="translate(0 9.975)"><path class="c" d="M185.346,303.9a.3.3,0,0,1-.15-.559l1.515-.875a.3.3,0,0,1,.3.519l-1.515.875A.3.3,0,0,1,185.346,303.9Z" transform="translate(-185.046 -302.426)"/></g></g></g><g transform="translate(1.454 1.453)"><g transform="translate(0 3.971)"><path class="c" d="M186.861,234.291a.3.3,0,0,1-.149-.04l-1.515-.875a.3.3,0,1,1,.3-.519l1.515.875a.3.3,0,0,1-.15.559Z" transform="translate(-185.046 -232.817)"/><g transform="translate(17.277 9.975)"><path class="c" d="M307.428,303.9a.3.3,0,0,1-.149-.04l-1.515-.875a.3.3,0,1,1,.3-.519l1.515.875a.3.3,0,0,1-.15.559Z" transform="translate(-305.613 -302.426)"/></g></g><g transform="translate(3.971)"><g transform="translate(9.975)"><path class="c" d="M282.668,207.217a.3.3,0,0,1-.149-.04.3.3,0,0,1-.11-.409l.875-1.516a.3.3,0,0,1,.519.3l-.875,1.516A.3.3,0,0,1,282.668,207.217Z" transform="translate(-282.369 -205.103)"/></g><g transform="translate(0 17.277)"><path class="c" d="M213.059,327.785a.3.3,0,0,1-.259-.449l.875-1.516a.3.3,0,0,1,.519.3l-.875,1.515A.3.3,0,0,1,213.059,327.785Z" transform="translate(-212.76 -325.67)"/></g></g></g></g><g transform="translate(136.024 156.081)"><rect class="g" width="0.299" height="6.547" transform="translate(0 0.212) rotate(-45)"/></g><path class="g" d="M250.4,270a.462.462,0,1,1-.462-.462A.463.463,0,0,1,250.4,270Z" transform="translate(-113.813 -113.814)"/></g></svg>