<svg xmlns="http://www.w3.org/2000/svg" xmlns:xlink="http://www.w3.org/1999/xlink" width="50" height="49.997" viewBox="0 0 50 49.997"><defs><style>.a{fill:none;}.b{clip-path:url(#a);}.c{fill:#396516;}.d{fill:rgba(57,101,22,0.5);}.e{filter:url(#c);}</style><clipPath id="a"><rect class="a" width="50" height="49.997"/></clipPath><filter id="c" x="-2.999" y="-1.001" width="40.375" height="55.999" filterUnits="userSpaceOnUse"><feOffset dy="2" input="SourceAlpha"/><feGaussianBlur stdDeviation="1" result="d"/><feFlood flood-opacity="0.102"/><feComposite operator="in" in2="d"/><feComposite in="SourceGraphic"/></filter></defs><g class="b"><g class="b"><g class="e" transform="matrix(1, 0, 0, 1, 0, 0)"><path class="c" d="M0,50V46.874A15.473,15.473,0,0,1,15.626,31.249H25V37.5H15.626a9.1,9.1,0,0,0-8.75,6.25H25V50ZM9.376,15.624V12.5a12.5,12.5,0,1,1,25,0v3.125a12.5,12.5,0,1,1-25,0Zm6.25-3.125v3.125a6.25,6.25,0,0,0,12.5,0V12.5a6.25,6.25,0,0,0-12.5,0Z"/></g></g><path class="d" d="M19.333,10H14.667v4.667H10v4.667h4.667V24h4.667V19.333H24V14.667H19.333Z" transform="translate(18.251 23.249)"/></g></svg>