<svg xmlns="http://www.w3.org/2000/svg" width="62.98" height="62.98" viewBox="0 0 62.98 62.98"><defs><style>.a{fill:#15b0bf;}.b{fill:none;stroke:#1695a4;stroke-miterlimit:10;stroke-width:1.4px;stroke-dasharray:5 6;}.c{fill:#1695a4;}.d{fill:#fff;}.e{fill:#d1ecfb;}.f{fill:#2c5871;}.g{fill:#f99b1c;}</style></defs><g transform="translate(-115.639 -135.697)"><ellipse class="a" cx="19.947" cy="19.947" rx="19.947" ry="19.947" transform="translate(123.066 181.907) rotate(-76.455)"/><circle class="b" cx="21.567" cy="21.567" r="21.567" transform="translate(116.629 167.187) rotate(-45)"/><circle class="c" cx="17.839" cy="17.839" r="17.839" transform="translate(121.901 167.187) rotate(-45)"/><ellipse class="d" cx="16.824" cy="16.824" rx="16.824" ry="16.824" transform="translate(126.842 179.617) rotate(-76.497)"/><path class="e" d="M194.469,198.924a16.824,16.824,0,0,1,16.8,15.887c.017-.31.027-.622.027-.937a16.824,16.824,0,0,0-33.648,0c0,.314.01.627.027.937A16.824,16.824,0,0,1,194.469,198.924Z" transform="translate(-47.34 -46.834)"/><path class="f" d="M248.1,266.28a1.874,1.874,0,1,1-1.874-1.874A1.873,1.873,0,0,1,248.1,266.28Z" transform="translate(-99.092 -99.093)"/><g transform="translate(146.427 155.067)"><path class="f" d="M250.276,231.514a.7.7,0,0,1-.7-.7V219.394a.7.7,0,1,1,1.405,0v11.417A.7.7,0,0,1,250.276,231.514Z" transform="translate(-249.573 -218.691)"/></g><g transform="translate(139.035 166.484)"><path class="f" d="M217.3,275.3a.7.7,0,0,1-.352-1.311l7.392-4.268a.7.7,0,0,1,.7,1.217l-7.392,4.268A.7.7,0,0,1,217.3,275.3Z" transform="translate(-216.594 -269.631)"/></g><path class="d" d="M250.066,269.049a1.073,1.073,0,1,1-1.073-1.073A1.073,1.073,0,0,1,250.066,269.049Z" transform="translate(-101.863 -101.863)"/><g transform="translate(129.691 149.748)"><g transform="translate(0 0)"><g transform="translate(16.97)"><path class="c" d="M251.086,198.634a.469.469,0,0,1-.468-.468v-2.737a.468.468,0,0,1,.937,0v2.737A.469.469,0,0,1,251.086,198.634Z" transform="translate(-250.618 -194.96)"/><g transform="translate(0 31.204)"><path class="c" d="M251.086,337.854a.468.468,0,0,1-.468-.468v-2.737a.468.468,0,0,1,.937,0v2.737A.468.468,0,0,1,251.086,337.854Z" transform="translate(-250.618 -334.18)"/></g></g><g transform="translate(0 16.97)"><g transform="translate(31.204)"><path class="c" d="M317.327,271.612H314.59a.468.468,0,1,1,0-.937h2.737a.468.468,0,0,1,0,.937Z" transform="translate(-314.122 -270.675)"/></g><path class="c" d="M178.108,271.612h-2.737a.468.468,0,0,1,0-.937h2.737a.468.468,0,1,1,0,.937Z" transform="translate(-174.903 -270.675)"/></g></g><g transform="translate(2.273 2.273)"><g transform="translate(6.212)"><path class="c" d="M214.6,208.41a.469.469,0,0,1-.406-.234l-1.368-2.37a.469.469,0,0,1,.812-.468l1.368,2.37a.469.469,0,0,1-.172.64A.464.464,0,0,1,214.6,208.41Z" transform="translate(-212.76 -205.103)"/><g transform="translate(15.602 27.023)"><path class="c" d="M284.207,328.977a.468.468,0,0,1-.406-.234l-1.369-2.37a.469.469,0,0,1,.812-.468l1.368,2.37a.468.468,0,0,1-.405.7Z" transform="translate(-282.369 -325.67)"/></g></g><g transform="translate(0 6.212)"><g transform="translate(27.023)"><path class="c" d="M306.082,235.122a.469.469,0,0,1-.235-.874l2.37-1.368a.468.468,0,1,1,.468.811l-2.37,1.369A.467.467,0,0,1,306.082,235.122Z" transform="translate(-305.613 -232.817)"/></g><g transform="translate(0 15.602)"><path class="c" d="M185.515,304.732a.468.468,0,0,1-.235-.874l2.37-1.369a.468.468,0,0,1,.468.811l-2.37,1.369A.467.467,0,0,1,185.515,304.732Z" transform="translate(-185.046 -302.426)"/></g></g></g><g transform="translate(2.273 2.273)"><g transform="translate(0 6.212)"><path class="c" d="M187.885,235.122a.467.467,0,0,1-.234-.063l-2.37-1.369a.468.468,0,1,1,.468-.811l2.37,1.368a.469.469,0,0,1-.235.874Z" transform="translate(-185.046 -232.817)"/><g transform="translate(27.023 15.602)"><path class="c" d="M308.452,304.732a.467.467,0,0,1-.234-.063l-2.37-1.369a.468.468,0,1,1,.468-.811l2.37,1.369a.468.468,0,0,1-.235.874Z" transform="translate(-305.613 -302.426)"/></g></g><g transform="translate(6.212)"><g transform="translate(15.602)"><path class="c" d="M282.837,208.41a.463.463,0,0,1-.234-.063.468.468,0,0,1-.172-.64l1.369-2.37a.469.469,0,0,1,.812.468l-1.368,2.37A.469.469,0,0,1,282.837,208.41Z" transform="translate(-282.369 -205.103)"/></g><g transform="translate(0 27.023)"><path class="c" d="M213.228,328.977a.468.468,0,0,1-.405-.7l1.368-2.37a.469.469,0,0,1,.812.468l-1.368,2.37A.468.468,0,0,1,213.228,328.977Z" transform="translate(-212.76 -325.67)"/></g></g></g></g><g transform="translate(146.964 167.021)"><rect class="g" width="0.468" height="10.24" transform="translate(0 0.331) rotate(-45)"/></g><path class="g" d="M250.927,270.261a.723.723,0,1,1-.723-.723A.723.723,0,0,1,250.927,270.261Z" transform="translate(-103.074 -103.075)"/></g></svg>