<svg xmlns="http://www.w3.org/2000/svg" width="24" height="36.114" viewBox="0 0 24 36.114"><defs><style>.a{fill:#bd242b;}.b{fill:#fff;}.c{fill:#cd4a45;}.d{fill:#ac262b;}</style></defs><g transform="translate(-345.02 -236)"><g transform="translate(345.02 236)"><path class="a" d="M369.02,248c0,6.627-12,24.114-12,24.114s-12-17.487-12-24.114a12,12,0,0,1,24,0Z" transform="translate(-345.02 -236)"/><circle class="b" cx="5.641" cy="5.641" r="5.641" transform="translate(4.023 11.471) rotate(-45)"/></g><path class="c" d="M368.846,274.051a10.424,10.424,0,0,1,18.688-6.355,10.425,10.425,0,1,0-17.3,11.55A10.377,10.377,0,0,1,368.846,274.051Z" transform="translate(-21.769 -24.997)"/><path class="d" d="M510.066,453.962c1.635,2.74,2.83,4.59,2.83,4.59s12-17.487,12-24.114c0-.348-.018-.692-.047-1.032a29.144,29.144,0,0,1-1.965,5.345c-2.271,4.728-5.63,7.758-9.208,11.593C512.522,451.58,511.322,452.8,510.066,453.962Z" transform="translate(-155.876 -186.437)"/></g></svg>