<svg xmlns="http://www.w3.org/2000/svg" xmlns:xlink="http://www.w3.org/1999/xlink" width="40.745" height="50" viewBox="0 0 40.745 50"><defs><style>.a{fill:none;}.b{clip-path:url(#a);}.c{fill:#374580;}.d{fill:#fff;font-size:10px;font-family:Roboto-Bold, Roboto;font-weight:700;}</style><clipPath id="a"><rect class="a" width="40.745" height="50"/></clipPath></defs><g class="b"><path class="c" d="M721.091,534.818a2.983,2.983,0,0,0-2.979,2.98v44.039a2.984,2.984,0,0,0,2.979,2.98h26.6v-5.852a4.686,4.686,0,0,1,4.68-4.68h6.49V537.8a2.983,2.983,0,0,0-2.98-2.98Zm30,27.281H725.878v-2.051h25.212Zm0-7.176H725.878v-2.05h25.212Zm0-7.176H725.878V545.7h25.212Z" transform="translate(-718.112 -534.818)"/><text class="d" transform="translate(6 44)"><tspan x="0" y="0">21</tspan></text></g></svg>