<svg xmlns="http://www.w3.org/2000/svg" width="49.558" height="49.558" viewBox="0 0 49.558 49.558">
  <g id="company" transform="translate(0)">
    <path id="Path_7" data-name="Path 7" d="M158.381,35.191A11.191,11.191,0,1,1,147.191,24,11.191,11.191,0,0,1,158.381,35.191Zm0,0" transform="translate(-122.411 -21.602)" fill="#e6e9ed"/>
    <path id="Path_8" data-name="Path 8" d="M286.381,259.191A11.191,11.191,0,1,1,275.191,248,11.191,11.191,0,0,1,286.381,259.191Zm0,0" transform="translate(-237.622 -223.221)" fill="#e6e9ed"/>
    <path id="Path_9" data-name="Path 9" d="M30.381,259.191A11.191,11.191,0,1,1,19.191,248,11.191,11.191,0,0,1,30.381,259.191Zm0,0" transform="translate(-7.201 -223.221)" fill="#e6e9ed"/>
    <g id="Group_7" data-name="Group 7" transform="translate(0.799 0.799)">
      <path id="Path_10" data-name="Path 10" d="M73.6,8a1.6,1.6,0,0,1,1.6,1.6,1.214,1.214,0,0,1-.024.24,1.563,1.563,0,0,1-.983,1.239,1.478,1.478,0,0,1-.592.12,1.578,1.578,0,0,1-.935-.3A1.6,1.6,0,0,1,73.6,8Zm0,0" transform="translate(-65.605 -8)" fill="#fcd770"/>
      <path id="Path_11" data-name="Path 11" d="M10.534,96.3A1.6,1.6,0,0,1,11.2,97.6a1.57,1.57,0,0,1-.064.439,1.6,1.6,0,0,1-1.127,1.1A1.361,1.361,0,0,1,9.6,99.2a1.6,1.6,0,1,1,0-3.2,1.578,1.578,0,0,1,.935.3Zm0,0" transform="translate(-8 -87.207)" fill="#fcd770"/>
      <path id="Path_12" data-name="Path 12" d="M51,248.823a1.6,1.6,0,0,1-2.758,1.607A1.556,1.556,0,0,1,48,249.6a1.6,1.6,0,0,1,1.191-1.543A1.362,1.362,0,0,1,49.6,248a1.521,1.521,0,0,1,.823.232A1.574,1.574,0,0,1,51,248.823Zm0,0" transform="translate(-44.003 -224.02)" fill="#fcd770"/>
      <path id="Path_13" data-name="Path 13" d="M121.638,128a1.6,1.6,0,0,1,.216,3.174,1.324,1.324,0,0,1-.256.024,1.607,1.607,0,0,1-1.6-1.6,1.6,1.6,0,0,1,1.007-1.479,1.477,1.477,0,0,1,.592-.12Zm0,0" transform="translate(-108.809 -116.01)" fill="#fcd770"/>
      <path id="Path_14" data-name="Path 14" d="M179,24.823a1.6,1.6,0,0,1-2.758,1.607A1.555,1.555,0,0,1,176,25.6a1.216,1.216,0,0,1,.024-.24A1.593,1.593,0,0,1,177.6,24a1.617,1.617,0,0,1,1.4.823Zm0,0" transform="translate(-159.214 -22.401)" fill="#fcd770"/>
      <path id="Path_15" data-name="Path 15" d="M314.55,42.885a1.577,1.577,0,0,1-.951.312,1.6,1.6,0,0,1-1.6-1.6,1.578,1.578,0,0,1,.312-.951,1.6,1.6,0,0,1,2.862.671,1.587,1.587,0,0,1,.024.28,1.608,1.608,0,0,1-.128.623A1.683,1.683,0,0,1,314.55,42.885Zm0,0" transform="translate(-281.626 -36.803)" fill="#fcd770"/>
      <path id="Path_16" data-name="Path 16" d="M456.039,9.95A1.713,1.713,0,0,1,456,9.6a1.6,1.6,0,1,1,1.6,1.6h-.032A1.606,1.606,0,0,1,456.039,9.95Zm0,0" transform="translate(-411.237 -8)" fill="#fcd770"/>
      <path id="Path_17" data-name="Path 17" d="M457.446,96.008A.937.937,0,0,1,457.6,96a1.6,1.6,0,1,1-1.263,2.574A1.552,1.552,0,0,1,456,97.6a1.6,1.6,0,0,1,1.447-1.591Zm0,0" transform="translate(-411.237 -87.207)" fill="#fcd770"/>
      <path id="Path_18" data-name="Path 18" d="M386.854,152.615a1.579,1.579,0,0,1,.344.983,1.6,1.6,0,1,1-1.6-1.6A1.574,1.574,0,0,1,386.854,152.615Zm0,0" transform="translate(-346.432 -137.612)" fill="#fcd770"/>
      <path id="Path_19" data-name="Path 19" d="M434.63,258.821A1.6,1.6,0,0,1,432,257.6a1.542,1.542,0,0,1,.2-.767,1.612,1.612,0,0,1,1.4-.831,1.6,1.6,0,0,1,1.031,2.821Zm0,0" transform="translate(-389.635 -231.221)" fill="#fcd770"/>
      <path id="Path_20" data-name="Path 20" d="M363.2,457.6a1.6,1.6,0,0,1-3.2,0,.647.647,0,0,1,.008-.128,1.6,1.6,0,0,1,3.182,0A.667.667,0,0,1,363.2,457.6Zm0,0" transform="translate(-324.83 -411.238)" fill="#fcd770"/>
      <path id="Path_21" data-name="Path 21" d="M233.1,456.088a1.519,1.519,0,0,1,.5-.088,1.622,1.622,0,1,1-.5.088Zm0,0" transform="translate(-209.619 -411.238)" fill="#fcd770"/>
      <path id="Path_22" data-name="Path 22" d="M210.11,384.088A1.6,1.6,0,0,1,211.2,385.6a1.615,1.615,0,0,1-1.1,1.519,1.744,1.744,0,0,1-.5.08,1.649,1.649,0,0,1-.631-.128A1.6,1.6,0,0,1,209.6,384,1.568,1.568,0,0,1,210.11,384.088Zm0,0" transform="translate(-188.017 -346.432)" fill="#fcd770"/>
    </g>
    <path id="Path_23" data-name="Path 23" d="M318.388,379.4v3.557a11.146,11.146,0,0,1-5.6,2.5,1.6,1.6,0,0,0-3.182,0,11.147,11.147,0,0,1-5.6-2.5V379.4a2.4,2.4,0,0,1,1.743-2.3L309.6,376l1.6,1.6,1.6-1.6,3.853,1.1A2.4,2.4,0,0,1,318.388,379.4Zm0,0" transform="translate(-273.626 -338.432)" fill="#b4dd7f"/>
    <path id="Path_24" data-name="Path 24" d="M363.2,355.68v2.03l-1.6,1.6-1.6-1.6v-2.03a3.176,3.176,0,0,0,3.2,0Zm0,0" transform="translate(-324.03 -320.142)" fill="#f0d0b4"/>
    <path id="Path_25" data-name="Path 25" d="M348.8,287.562A3.2,3.2,0,0,1,344,284.8v-1.6a3.2,3.2,0,1,1,6.395,0v1.6A3.181,3.181,0,0,1,348.8,287.562Zm0,0" transform="translate(-309.629 -252.024)" fill="#f0d0b4"/>
    <path id="Path_26" data-name="Path 26" d="M62.388,379.4v3.549A11.142,11.142,0,0,1,48,382.962V379.4a2.4,2.4,0,0,1,1.743-2.3L53.6,376l1.6,1.6,1.6-1.6,3.853,1.1A2.4,2.4,0,0,1,62.388,379.4Zm0,0" transform="translate(-43.204 -338.431)" fill="#69d6f4"/>
    <path id="Path_27" data-name="Path 27" d="M107.2,355.68v2.03l-1.6,1.6-1.6-1.6v-2.03a3.176,3.176,0,0,0,3.2,0Zm0,0" transform="translate(-93.609 -320.142)" fill="#f0d0b4"/>
    <path id="Path_28" data-name="Path 28" d="M92.8,287.562A3.2,3.2,0,0,1,88,284.8v-1.6a3.2,3.2,0,1,1,6.395,0v1.6A3.181,3.181,0,0,1,92.8,287.562Zm0,0" transform="translate(-79.207 -252.024)" fill="#f0d0b4"/>
    <path id="Path_29" data-name="Path 29" d="M190.388,155.4v3.557A11.168,11.168,0,0,1,176,158.97V155.4a2.4,2.4,0,0,1,1.743-2.3L181.6,152l1.6,1.6,1.6-1.6,3.853,1.1A2.4,2.4,0,0,1,190.388,155.4Zm0,0" transform="translate(-158.415 -136.813)" fill="#ff826e"/>
    <path id="Path_30" data-name="Path 30" d="M235.2,131.68v2.03l-1.6,1.6-1.6-1.6v-2.03a3.176,3.176,0,0,0,3.2,0Zm0,0" transform="translate(-208.82 -118.523)" fill="#f0d0b4"/>
    <path id="Path_31" data-name="Path 31" d="M217.6,63.562A3.181,3.181,0,0,1,216,60.8V59.2a3.2,3.2,0,1,1,6.395,0v1.6a3.193,3.193,0,0,1-4.8,2.766Zm0,0" transform="translate(-194.418 -50.405)" fill="#f0d0b4"/>
    <path id="Path_32" data-name="Path 32" d="M47.16,13.589A2.392,2.392,0,0,0,47.823,8.9l.089-4.234A2.391,2.391,0,1,0,44.79,2.118l-9.957,2.27a2.379,2.379,0,0,0-3.421-.764A11.829,11.829,0,0,0,20.847,2.276a2.378,2.378,0,0,0-3.764.589l-5.938-.914a2.4,2.4,0,1,0-4.328,1.8L3.075,8.9a2.349,2.349,0,0,0-.677-.11,2.392,2.392,0,0,0-.2,4.776L5.046,24.4a2.343,2.343,0,0,0-.961,2.592,11.974,11.974,0,1,0,18.05,15.35c.067.007.132.019.2.02l.974,2.92a2.39,2.39,0,1,0,3.72,2.68h8.288a2.388,2.388,0,0,0,4.58-.253,11.938,11.938,0,0,0,6.924-19.323,2.37,2.37,0,0,0,.338-1.207,2.4,2.4,0,0,0-2.4-2.4c-.074,0-.144.015-.217.021l-2.908-6.3a2.387,2.387,0,0,0,.727-1.714,2.358,2.358,0,0,0-.132-.751l3.639-2.83a2.376,2.376,0,0,0,1.289.383Zm-.847-8.955-.092,4.351a2.391,2.391,0,0,0-.868.646L35.625,5.847,45.14,3.678a2.4,2.4,0,0,0,1.174.956Zm.847,7.356a.8.8,0,1,1,.8-.8A.8.8,0,0,1,47.16,11.99Zm0-10.391a.8.8,0,1,1-.8.8A.8.8,0,0,1,47.16,1.6ZM32.772,4.8a.8.8,0,1,1-.8.8A.8.8,0,0,1,32.772,4.8Zm-2.29.127a2.374,2.374,0,0,0-.108.672,2.4,2.4,0,0,0,2.4,2.4,2.374,2.374,0,0,0,.672-.108,10.329,10.329,0,0,1-.672,12.333V18.595a3.212,3.212,0,0,0-2.319-3.075l-3.277-.935V13.568a3.981,3.981,0,0,0,1.6-3.177v-1.6a4,4,0,1,0-7.993,0v1.6a3.978,3.978,0,0,0,1.6,3.177v1.017L19.1,15.52a3.211,3.211,0,0,0-2.319,3.075v1.6A10.31,10.31,0,0,1,14.8,16.446a2.387,2.387,0,0,0-.29-4.271,10.42,10.42,0,0,1,3.274-6.24A2.389,2.389,0,0,0,21.582,4a2.4,2.4,0,0,0-.028-.277,10.266,10.266,0,0,1,8.928,1.2Zm-5.7,7.866a2.4,2.4,0,0,1-2.4-2.4v-1.6a2.4,2.4,0,1,1,4.8,0v1.6A2.4,2.4,0,0,1,24.779,12.789Zm0,1.6a4,4,0,0,0,.8-.081v.549l-.8.8-.8-.8v-.549A4,4,0,0,0,24.779,14.388Zm-1.831,1.7,1.831,1.831,1.831-1.831,3.4.973a1.606,1.606,0,0,1,1.16,1.537v3.168a10.312,10.312,0,0,1-12.789-.01V18.595a1.606,1.606,0,0,1,1.159-1.537ZM6.395,25.578a.8.8,0,1,1-.8.8A.8.8,0,0,1,6.395,25.578ZM6.6,24,3.746,13.171a2.418,2.418,0,0,0,.6-.593l6.86,1.96a2.375,2.375,0,0,0,.54,1.365L6.872,24.028A2.664,2.664,0,0,0,6.6,24Zm2.2-19.2c.033,0,.062-.008.094-.01L12.011,12.6a2.442,2.442,0,0,0-.371.4l-6.86-1.96a2.379,2.379,0,0,0-.408-1.205L8.116,4.686a2.339,2.339,0,0,0,.676.11Zm2.1-1.266,5.938.914c.01.057.028.109.044.165a12.023,12.023,0,0,0-3.777,6.4L10.37,4.19a2.384,2.384,0,0,0,.523-.66Zm2.7,10.059a.8.8,0,1,1-.8.8A.8.8,0,0,1,13.589,13.589ZM19.184,3.2a.8.8,0,1,1-.8.8A.8.8,0,0,1,19.184,3.2ZM8.793,1.6a.8.8,0,1,1-.8.8A.8.8,0,0,1,8.793,1.6ZM1.6,11.191a.8.8,0,1,1,.8.8A.8.8,0,0,1,1.6,11.191Zm4,32.953V40.976a1.606,1.606,0,0,1,1.159-1.537l3.4-.973L11.99,40.3l1.831-1.831,3.4.973a1.606,1.606,0,0,1,1.16,1.537v3.175A10.344,10.344,0,0,1,5.6,44.144ZM11.99,35.17a2.4,2.4,0,0,1-2.4-2.4v-1.6a2.4,2.4,0,0,1,4.8,0v1.6A2.4,2.4,0,0,1,11.99,35.17Zm0,1.6a4,4,0,0,0,.8-.081v.549l-.8.8-.8-.8v-.549A4,4,0,0,0,11.99,36.769Zm7.993,5.824V40.975A3.212,3.212,0,0,0,17.664,37.9l-3.277-.934V35.949a3.981,3.981,0,0,0,1.6-3.177v-1.6a4,4,0,1,0-7.993,0v1.6a3.978,3.978,0,0,0,1.6,3.177v1.017L6.315,37.9A3.211,3.211,0,0,0,4,40.976V42.6a10.341,10.341,0,0,1,1-14.283,2.389,2.389,0,0,0,3.8-1.939,2.308,2.308,0,0,0-.027-.272,10.281,10.281,0,0,1,3.225-.527A10.4,10.4,0,0,1,22.381,35.97a10.2,10.2,0,0,1-.148,1.614,2.388,2.388,0,0,0-1.551,4.072,10.4,10.4,0,0,1-.7.938Zm2.4-3.426a.8.8,0,1,1-.8.8A.8.8,0,0,1,22.381,39.167Zm2.4,8.793a.8.8,0,1,1,.8-.8A.8.8,0,0,1,24.779,47.96ZM37.568,35.17a2.4,2.4,0,0,1-2.4-2.4v-1.6a2.4,2.4,0,0,1,4.8,0v1.6A2.4,2.4,0,0,1,37.568,35.17Zm0,1.6a4,4,0,0,0,.8-.081v.549l-.8.8-.8-.8v-.549A4,4,0,0,0,37.568,36.769Zm-1.831,1.7L37.568,40.3,39.4,38.466l3.4.973a1.606,1.606,0,0,1,1.16,1.537v3.152a10.3,10.3,0,0,1-4.246,1.987,2.382,2.382,0,0,0-4.3,0,10.3,10.3,0,0,1-4.246-1.987V40.976a1.606,1.606,0,0,1,1.159-1.537Zm1.831,9.494a.8.8,0,1,1,.8-.8A.8.8,0,0,1,37.568,47.96Zm7.993-5.394v-1.59A3.212,3.212,0,0,0,43.243,37.9l-3.277-.934V35.949a3.981,3.981,0,0,0,1.6-3.177v-1.6a4,4,0,1,0-7.993,0v1.6a3.978,3.978,0,0,0,1.6,3.177v1.017l-3.277.935a3.211,3.211,0,0,0-2.319,3.075v1.59A10.364,10.364,0,0,1,42.4,26.788a2.358,2.358,0,0,0,2.359,2.787,2.365,2.365,0,0,0,.84-.16,10.281,10.281,0,0,1-.041,13.151Zm0-15.389a.8.8,0,1,1-.8-.8A.8.8,0,0,1,45.562,27.177ZM43.016,25.3A11.972,11.972,0,0,0,31.633,46.361h-4.6a2.392,2.392,0,0,0-2.206-1.594l-.974-2.92a2.376,2.376,0,0,0-.073-3.823,11.948,11.948,0,0,0-15.341-13.5l4.674-7.79c.038.008.078.005.116.012a11.982,11.982,0,0,0,23.542-3.161A11.848,11.848,0,0,0,34.977,7.31l9.793,3.809c0,.024-.007.047-.007.072a2.358,2.358,0,0,0,.132.751l-3.639,2.83a2.376,2.376,0,0,0-1.289-.383,2.4,2.4,0,1,0,0,4.8c.074,0,.144-.015.216-.021Zm-3.05-7.717a.8.8,0,1,1,.8-.8A.8.8,0,0,1,39.966,17.585Zm0,0"/>
  </g>
</svg>
