<svg xmlns="http://www.w3.org/2000/svg" xmlns:xlink="http://www.w3.org/1999/xlink" width="41.494" height="52.249" viewBox="0 0 41.494 52.249"><defs><style>.a{fill:none;}.b{clip-path:url(#a);}.c{fill:#2a314e;}.d{fill:#7aa70f;}.e{fill:#fff;}.f{filter:url(#b);}</style><clipPath id="a"><rect class="a" width="41.494" height="52.249"/></clipPath><filter id="b" x="0" y="36.249" width="16" height="16" filterUnits="userSpaceOnUse"><feOffset dy="2" input="SourceAlpha"/><feGaussianBlur stdDeviation="1" result="c"/><feFlood flood-opacity="0.102"/><feComposite operator="in" in2="c"/><feComposite in="SourceGraphic"/></filter></defs><g class="b"><g transform="translate(-717.363 -534.818)"><path class="c" d="M721.091,534.818a2.983,2.983,0,0,0-2.979,2.98v44.039a2.984,2.984,0,0,0,2.979,2.98h26.6v-5.852a4.686,4.686,0,0,1,4.68-4.68h6.49V537.8a2.983,2.983,0,0,0-2.98-2.98Zm30,27.281H725.878v-2.051h25.212Zm0-7.176H725.878v-2.05h25.212Zm0-7.176H725.878V545.7h25.212Z"/><path class="d" d="M756.015,588.321v5.734l9.912-9.346h-6.3A3.616,3.616,0,0,0,756.015,588.321Z" transform="translate(-8.634 -10.595)"/></g><g class="f" transform="matrix(1, 0, 0, 1, 0, 0)"><path class="e" d="M16.667,10H13.333v3.333H10v3.333h3.333V20h3.333V16.667H20V13.333H16.667Z" transform="translate(-7 27.25)"/></g></g></svg>