<svg xmlns="http://www.w3.org/2000/svg" width="40.745" height="50" viewBox="0 0 40.745 50"><defs><style>.a{fill:#2a314e;}.b{fill:#7aa70f;}</style></defs><g transform="translate(-718.112 -534.818)"><path class="a" d="M721.091,534.818a2.983,2.983,0,0,0-2.979,2.98v44.039a2.984,2.984,0,0,0,2.979,2.98h26.6v-5.852a4.686,4.686,0,0,1,4.68-4.68h6.49V537.8a2.983,2.983,0,0,0-2.98-2.98Zm30,27.281H725.878v-2.051h25.212Zm0-7.176H725.878v-2.05h25.212Zm0-7.176H725.878V545.7h25.212Z"/><path class="b" d="M756.015,588.321v5.734l9.912-9.346h-6.3A3.616,3.616,0,0,0,756.015,588.321Z" transform="translate(-8.634 -10.595)"/></g></svg>